<svg version="1.1" id="Layer_1" xmlns="http://www.w3.org/2000/svg" xmlns:xlink="http://www.w3.org/1999/xlink" x="0px" y="0px"
	 width="100%" viewBox="0 0 460 460" enable-background="new 0 0 460 460" xml:space="preserve">
<path fill="#FFFFFF" opacity="1.000000" stroke="none" 
	d="
M255.000000,461.000000 
	C171.333328,461.000000 88.166626,460.972992 5.000142,461.095978 
	C1.575823,461.101044 0.902694,460.423706 0.905189,456.999939 
	C1.014977,306.333344 1.014977,155.666656 0.905189,5.000069 
	C0.902694,1.576311 1.576311,0.902694 5.000069,0.905188 
	C155.666656,1.014980 306.333344,1.014981 456.999939,0.905188 
	C460.423706,0.902694 461.097290,1.576311 461.094818,5.000069 
	C460.985016,155.666656 460.985016,306.333344 461.094818,456.999939 
	C461.097321,460.423706 460.424469,461.103180 456.999817,461.096558 
	C389.833405,460.966675 322.666656,461.000000 255.000000,461.000000 
z"/>
<path fill="#FF7D02" opacity="1.000000" stroke="none" 
	d="
M421.750427,252.812225 
	C422.257751,254.052734 422.545013,255.188492 422.546783,256.324707 
	C422.575012,274.302063 422.485199,292.280121 422.643372,310.256134 
	C422.671051,313.400177 421.488129,315.057526 418.887817,316.477814 
	C380.627380,337.375549 342.406189,358.345154 304.167328,379.282501 
	C280.036896,392.494934 255.892609,405.682129 231.402725,418.868713 
	C229.378220,417.138275 229.439774,414.933960 229.441788,412.792877 
	C229.458099,395.419250 229.264755,378.045105 229.576569,360.244446 
	C229.934021,356.937317 232.067032,355.704102 234.308640,354.464813 
	C261.061188,339.674896 288.017578,325.256958 314.745087,310.422119 
	C331.301575,301.232605 347.815735,291.967712 364.946136,283.059784 
	C382.951508,272.598633 401.083771,263.134766 419.010864,253.298157 
	C419.750427,252.892380 420.540771,252.656952 421.750427,252.812225 
z"/>
<path fill="#FF7D01" opacity="1.000000" stroke="none" 
	d="
M40.156723,207.272034 
	C39.061787,187.679962 39.531338,168.213623 39.509769,148.749329 
	C39.507477,146.679565 40.219551,145.613007 42.144379,144.573608 
	C67.955681,130.635544 93.709412,116.590469 119.444107,102.511055 
	C143.720062,89.229721 167.938553,75.843285 192.218063,62.568466 
	C204.864716,55.653919 217.588470,48.880390 230.639252,42.020203 
	C232.301529,43.465458 232.542755,45.268330 232.541367,47.113781 
	C232.528183,64.843445 232.806274,82.573967 232.338669,100.727982 
	C231.753311,103.983116 229.452209,105.146759 227.279083,106.357254 
	C213.613007,113.969719 199.719315,121.165672 186.076874,128.821457 
	C160.970108,142.910706 135.502518,156.341019 110.335045,170.319641 
	C105.537224,172.984436 100.555855,175.317627 95.610626,178.485565 
	C81.609108,186.029846 67.988831,193.498093 54.337444,200.909042 
	C49.856468,203.341629 45.589226,206.251083 40.156723,207.272034 
z"/>
<path fill="#FF7C01" opacity="1.000000" stroke="none" 
	d="
M40.156796,313.276855 
	C39.688107,293.819611 39.653294,274.496155 39.355774,255.176758 
	C39.303268,251.767578 41.661705,250.963150 43.683468,249.833939 
	C55.274651,243.359970 66.946701,237.030792 78.699448,230.336349 
	C85.874397,224.372665 94.407936,221.273041 102.065132,216.641312 
	C112.295525,210.453079 123.415855,205.826111 133.573608,198.749405 
	C148.246948,191.965134 161.771637,183.794861 175.675400,176.344315 
	C191.928070,167.635071 208.009125,158.606171 224.232895,149.842941 
	C226.428558,148.656967 228.750809,145.815521 231.919708,149.028442 
	C233.107162,156.830933 232.504990,164.281769 232.530258,171.711746 
	C232.569641,183.288239 232.815399,194.868378 232.309052,206.866211 
	C231.718674,209.896011 229.615158,211.020889 227.588318,212.181839 
	C216.167465,218.723511 204.511353,224.838730 192.697449,231.439774 
	C174.107727,241.367599 156.088364,251.561844 137.580887,261.625061 
	C123.352211,269.169128 109.509804,276.658020 95.518173,284.639465 
	C78.806953,293.333740 62.842346,302.634918 46.493301,311.227264 
	C44.586670,312.229279 42.824699,313.575256 40.156796,313.276855 
z"/>
<path fill="#FF7C01" opacity="1.000000" stroke="none" 
	d="
M421.801941,146.751328 
	C422.923096,166.458603 422.458008,186.038391 422.488647,205.616074 
	C422.492523,208.086166 421.160156,208.980515 419.283020,210.005707 
	C407.109619,216.654282 394.690796,222.868317 382.894196,230.670166 
	C369.968414,238.869324 356.486420,245.588623 343.363251,252.953430 
	C338.451477,255.709946 333.597870,258.563843 328.381256,261.536011 
	C316.124359,267.606934 304.540253,274.142883 292.913239,280.598419 
	C274.301453,290.932007 255.610123,301.120941 236.920151,311.311646 
	C234.839645,312.446045 232.492371,314.119812 230.063980,311.020874 
	C228.890396,302.865112 229.491592,295.067017 229.467911,287.288696 
	C229.433609,276.019073 229.146637,264.744965 229.727753,253.056213 
	C230.324921,250.416046 232.201904,249.625137 233.936752,248.648712 
	C245.477921,242.152954 257.269470,236.115234 269.099243,229.375595 
	C286.703705,219.724930 303.975830,210.238586 321.276123,200.803818 
	C322.297577,200.246796 323.321716,199.716217 324.502808,198.737457 
	C338.432251,191.585892 351.612305,183.811020 365.435730,176.454102 
	C381.608856,167.578430 397.584045,159.105667 413.374939,150.293518 
	C415.953857,148.854355 418.385101,147.005356 421.801941,146.751328 
z"/>
<path fill="#FF9E41" opacity="1.000000" stroke="none" 
	d="
M39.789558,313.502869 
	C55.394421,304.754608 70.970680,296.356720 86.564270,287.991150 
	C89.184784,286.585297 91.880257,285.319183 94.922081,283.962463 
	C98.236900,282.999664 100.447800,284.891968 102.646294,286.120850 
	C134.419708,303.881195 166.391068,321.280579 198.374374,338.657013 
	C206.699677,343.180145 214.760162,348.179077 223.288467,352.342773 
	C225.939011,353.636841 228.695160,354.940918 230.830566,357.646912 
	C231.005554,377.966248 231.020340,397.952789 231.043030,418.398071 
	C227.772598,418.943665 225.676682,416.507111 223.108841,415.100708 
	C184.376419,393.887512 145.667358,372.631622 106.929268,351.428802 
	C85.384415,339.636444 63.796799,327.922241 42.224747,316.179596 
	C41.193993,315.618561 40.151859,315.097595 39.789558,313.502869 
z"/>
<path fill="#FF9E41" opacity="1.000000" stroke="none" 
	d="
M422.085266,146.543747 
	C403.817780,156.896606 385.489502,166.908234 366.836121,176.980850 
	C364.568329,177.215851 363.002228,176.278152 361.384949,175.392014 
	C333.832031,160.295090 306.279724,145.195129 278.805573,129.957306 
	C262.971130,121.175125 246.757889,113.067390 231.147919,103.231995 
	C230.979950,82.916664 230.992844,62.925823 231.003418,42.466118 
	C239.694733,44.934494 247.137161,50.295685 255.102158,54.614784 
	C284.092590,70.335129 312.919647,86.356483 341.825378,102.233269 
	C368.546997,116.910423 395.290558,131.547684 422.085266,146.543747 
z"/>
<path fill="#FF9E42" opacity="1.000000" stroke="none" 
	d="
M134.166092,198.896271 
	C133.911240,202.519730 130.711014,202.276321 128.940048,203.256348 
	C112.561699,212.319839 96.039955,221.124207 79.183731,230.012039 
	C66.633896,223.352997 54.463741,216.679321 42.280037,210.030487 
	C41.268185,209.478287 40.087715,209.184387 39.783539,207.502655 
	C56.628567,198.304565 73.463684,189.500366 89.833939,179.840500 
	C91.230972,179.016113 92.882362,178.622772 94.792282,177.998718 
	C96.876892,176.802963 98.395561,177.779953 99.793198,178.549225 
	C110.651642,184.525726 121.488533,190.541229 132.398422,196.424103 
	C133.274155,196.896332 134.058426,197.522003 134.166092,198.896271 
z"/>
<path fill="#FF9D41" opacity="1.000000" stroke="none" 
	d="
M327.915771,261.432068 
	C333.024902,256.418091 339.366608,253.875427 345.210541,250.557632 
	C356.186615,244.326126 367.306061,238.346527 378.391754,232.309677 
	C379.536926,231.686066 380.857086,231.383713 382.458801,230.976181 
	C392.967865,236.484024 403.120483,241.936249 413.256378,247.419403 
	C416.153656,248.986740 419.002441,250.643631 421.988373,252.588104 
	C404.686432,262.481842 387.266754,272.041748 369.859070,281.623474 
	C368.705170,282.258636 367.642395,283.059326 366.193176,283.844299 
	C354.310455,277.371643 342.674927,271.014893 330.958191,264.806152 
	C329.638916,264.107056 328.297241,263.395172 327.915771,261.432068 
z"/>
<path fill="#FFFEFD" opacity="1.000000" stroke="none" 
	d="
M327.618530,261.003784 
	C334.278442,265.951416 341.723724,268.824951 348.454132,272.924042 
	C354.210907,276.430176 360.717316,278.670685 365.846252,283.569092 
	C321.056458,308.435394 276.263824,332.965240 231.230988,357.737366 
	C203.711121,342.991119 176.441742,327.983826 149.148132,313.020782 
	C131.444733,303.315338 113.705948,293.674500 95.643044,283.970581 
	C105.683571,276.547424 117.434090,271.566498 128.368607,265.149109 
	C130.899033,263.664032 133.606476,262.480591 136.586166,261.237305 
	C143.284927,262.618195 148.290833,266.727997 153.734619,269.751465 
	C179.261749,283.929077 205.163406,297.419342 230.586487,312.148193 
	C237.967697,310.371948 244.195984,305.882660 250.832291,302.288177 
	C275.902130,288.709381 300.802246,274.817230 325.780426,261.068756 
	C326.174347,260.851929 326.752777,260.970337 327.618530,261.003784 
z"/>
<path fill="#FFFEFD" opacity="1.000000" stroke="none" 
	d="
M134.381729,199.287201 
	C125.571564,193.334717 116.084816,189.326431 107.296432,184.082657 
	C103.599388,181.876755 99.684975,180.035172 95.519180,177.998108 
	C99.800682,173.601471 105.771606,171.438492 111.197517,168.425613 
	C134.251572,155.624191 157.428680,143.044296 180.567337,130.395401 
	C197.154724,121.327812 213.752441,112.279106 230.656311,103.064743 
	C237.424850,105.173309 243.099701,109.002960 249.050949,112.228622 
	C277.357239,127.571068 305.518585,143.180923 333.729950,158.698486 
	C344.496735,164.620697 355.259277,170.550629 366.267395,176.759445 
	C353.140015,184.809097 339.625244,192.313660 325.453369,199.341522 
	C320.413147,198.912643 316.867950,195.905823 313.007812,193.777023 
	C286.659760,179.246689 260.134277,165.038818 233.902435,150.297623 
	C233.025406,149.804764 232.190613,149.273987 231.270081,148.242157 
	C219.419571,153.315384 208.519012,159.932297 197.322113,165.992172 
	C176.934143,177.026398 156.597473,188.155396 136.224808,199.217987 
	C135.833969,199.430206 135.263062,199.310776 134.381729,199.287201 
z"/>
<path fill="#FF9D41" opacity="1.000000" stroke="none" 
	d="
M230.729660,312.017578 
	C224.298050,310.717102 219.032211,306.842224 213.396790,303.790466 
	C187.922119,289.995178 162.612137,275.895813 137.091354,261.611145 
	C142.375122,256.672699 149.006622,254.028366 155.147110,250.593292 
	C167.151672,243.877777 179.355896,237.519226 191.851654,230.984314 
	C193.998627,229.794876 195.393860,230.968002 196.812653,231.746689 
	C208.166428,237.977921 219.501556,244.242920 230.920929,250.974838 
	C231.008194,271.383881 230.941437,291.451233 230.729660,312.017578 
z"/>
<path fill="#FF9D41" opacity="1.000000" stroke="none" 
	d="
M231.011246,148.454407 
	C241.062485,152.220901 250.281464,158.045074 259.826202,163.244370 
	C281.460114,175.028992 303.021912,186.945984 324.845917,199.095154 
	C320.906738,203.509781 315.304413,205.299591 310.366455,208.126083 
	C297.278198,215.617844 283.892456,222.589951 270.293274,229.885773 
	C268.131653,230.462067 266.760132,229.350479 265.356781,228.549820 
	C254.111237,222.133942 242.315964,216.705841 231.219788,209.355347 
	C231.018661,189.005737 231.017349,168.964935 231.011246,148.454407 
z"/>
<path fill="#FFFEFC" opacity="1.000000" stroke="none" 
	d="
M230.749939,209.267059 
	C241.098343,213.283142 250.215805,219.332672 259.877014,224.357269 
	C263.092621,226.029648 266.214050,227.883072 269.669983,229.828278 
	C257.226532,237.016861 244.491577,244.030930 231.415802,251.180756 
	C224.489502,249.508331 219.158447,245.211227 213.171738,242.212540 
	C206.280029,238.760544 199.651016,234.784119 192.566879,230.995605 
	C198.683380,225.443832 206.828384,222.818787 213.895416,218.312500 
	C219.159134,214.956146 224.933136,212.400070 230.749939,209.267059 
z"/>
</svg>